<svg width="574" height="87" viewBox="0 0 574 87" fill="none" xmlns="http://www.w3.org/2000/svg">
<rect width="574" height="87" rx="2" fill="url(#paint0_linear_126_633)"/>
<path d="M158.8 51V36.72H170.1V51H167.08V39.24H161.82V51H158.8ZM183.382 45.52C183.382 46.4267 183.256 47.2333 183.002 47.94C182.762 48.6467 182.409 49.2467 181.942 49.74C181.489 50.22 180.936 50.5867 180.282 50.84C179.629 51.08 178.889 51.2 178.062 51.2C177.302 51.2 176.596 51.08 175.942 50.84C175.302 50.5867 174.749 50.22 174.282 49.74C173.816 49.2467 173.449 48.6467 173.182 47.94C172.929 47.2333 172.802 46.4267 172.802 45.52C172.802 44.3067 173.016 43.2867 173.442 42.46C173.869 41.62 174.482 40.98 175.282 40.54C176.082 40.1 177.029 39.88 178.122 39.88C179.149 39.88 180.056 40.1 180.842 40.54C181.629 40.98 182.249 41.62 182.702 42.46C183.156 43.2867 183.382 44.3067 183.382 45.52ZM175.842 45.52C175.842 46.24 175.916 46.8467 176.062 47.34C176.222 47.82 176.469 48.1867 176.802 48.44C177.136 48.68 177.569 48.8 178.102 48.8C178.636 48.8 179.062 48.68 179.382 48.44C179.716 48.1867 179.956 47.82 180.102 47.34C180.262 46.8467 180.342 46.24 180.342 45.52C180.342 44.8 180.262 44.2 180.102 43.72C179.956 43.24 179.716 42.88 179.382 42.64C179.049 42.4 178.616 42.28 178.082 42.28C177.296 42.28 176.722 42.5533 176.362 43.1C176.016 43.6333 175.842 44.44 175.842 45.52ZM195.625 51H192.645V42.32H189.905C189.772 43.92 189.605 45.2867 189.405 46.42C189.218 47.54 188.978 48.4533 188.685 49.16C188.405 49.8667 188.045 50.3867 187.605 50.72C187.165 51.04 186.625 51.2 185.985 51.2C185.638 51.2 185.325 51.1733 185.045 51.12C184.765 51.0667 184.512 50.9867 184.285 50.88V48.5C184.432 48.5533 184.585 48.6 184.745 48.64C184.905 48.68 185.072 48.7 185.245 48.7C185.432 48.7 185.605 48.6267 185.765 48.48C185.938 48.3333 186.098 48.0733 186.245 47.7C186.405 47.3267 186.552 46.8133 186.685 46.16C186.818 45.5067 186.938 44.6867 187.045 43.7C187.165 42.7 187.272 41.4933 187.365 40.08H195.625V51ZM197.176 40.08H200.436L202.496 46.22C202.562 46.42 202.616 46.62 202.656 46.82C202.709 47.02 202.749 47.2267 202.776 47.44C202.816 47.6533 202.842 47.88 202.856 48.12H202.916C202.956 47.7733 203.009 47.4467 203.076 47.14C203.156 46.82 203.242 46.5133 203.336 46.22L205.356 40.08H208.556L203.936 52.4C203.656 53.1467 203.289 53.7733 202.836 54.28C202.396 54.7867 201.882 55.1667 201.296 55.42C200.709 55.6733 200.069 55.8 199.376 55.8C199.042 55.8 198.749 55.78 198.496 55.74C198.256 55.7133 198.042 55.68 197.856 55.64V53.28C198.002 53.3067 198.176 53.3333 198.376 53.36C198.589 53.3867 198.809 53.4 199.036 53.4C199.449 53.4 199.802 53.3133 200.096 53.14C200.402 52.9667 200.656 52.7267 200.856 52.42C201.056 52.1267 201.216 51.8067 201.336 51.46L201.516 50.92L197.176 40.08ZM212.743 44.08C212.743 44.5467 212.856 44.9 213.083 45.14C213.323 45.38 213.649 45.5 214.063 45.5C214.636 45.5 215.169 45.44 215.663 45.32C216.156 45.1867 216.649 45.0133 217.143 44.8V40.08H220.123V51H217.143V46.66C216.676 46.9133 216.143 47.1467 215.543 47.36C214.943 47.56 214.263 47.66 213.503 47.66C212.369 47.66 211.463 47.3667 210.783 46.78C210.103 46.1933 209.763 45.3133 209.763 44.14V40.08H212.743V44.08ZM226.128 44.4C226.128 44.6267 226.114 44.9067 226.088 45.24C226.074 45.5733 226.054 45.9133 226.028 46.26C226.014 46.6067 225.994 46.9133 225.968 47.18C225.941 47.4467 225.921 47.6333 225.908 47.74L230.948 40.08H234.528V51H231.648V46.64C231.648 46.28 231.661 45.8867 231.688 45.46C231.714 45.02 231.741 44.6133 231.768 44.24C231.808 43.8533 231.834 43.56 231.848 43.36L226.827 51H223.248V40.08H226.128V44.4ZM246.682 42.32H243.102V51H240.122V42.32H236.542V40.08H246.682V42.32ZM253.777 44.3C254.897 44.3 255.823 44.42 256.557 44.66C257.29 44.8867 257.83 45.24 258.177 45.72C258.537 46.2 258.717 46.8 258.717 47.52C258.717 48.2267 258.55 48.84 258.217 49.36C257.897 49.88 257.383 50.2867 256.677 50.58C255.97 50.86 255.043 51 253.897 51H248.697V40.08H251.677V44.3H253.777ZM255.737 47.56C255.737 47.1333 255.563 46.8267 255.217 46.64C254.883 46.4533 254.383 46.36 253.717 46.36H251.677V48.94H253.757C254.343 48.94 254.817 48.8333 255.177 48.62C255.55 48.4067 255.737 48.0533 255.737 47.56ZM273.337 40.08H276.617L272.297 45.32L276.997 51H273.617L269.157 45.46V51H266.177V40.08H269.157V45.38L273.337 40.08ZM288.089 45.52C288.089 46.4267 287.963 47.2333 287.709 47.94C287.469 48.6467 287.116 49.2467 286.649 49.74C286.196 50.22 285.643 50.5867 284.989 50.84C284.336 51.08 283.596 51.2 282.769 51.2C282.009 51.2 281.303 51.08 280.649 50.84C280.009 50.5867 279.456 50.22 278.989 49.74C278.523 49.2467 278.156 48.6467 277.889 47.94C277.636 47.2333 277.509 46.4267 277.509 45.52C277.509 44.3067 277.723 43.2867 278.149 42.46C278.576 41.62 279.189 40.98 279.989 40.54C280.789 40.1 281.736 39.88 282.829 39.88C283.856 39.88 284.763 40.1 285.549 40.54C286.336 40.98 286.956 41.62 287.409 42.46C287.863 43.2867 288.089 44.3067 288.089 45.52ZM280.549 45.52C280.549 46.24 280.623 46.8467 280.769 47.34C280.929 47.82 281.176 48.1867 281.509 48.44C281.843 48.68 282.276 48.8 282.809 48.8C283.343 48.8 283.769 48.68 284.089 48.44C284.423 48.1867 284.663 47.82 284.809 47.34C284.969 46.8467 285.049 46.24 285.049 45.52C285.049 44.8 284.969 44.2 284.809 43.72C284.663 43.24 284.423 42.88 284.089 42.64C283.756 42.4 283.323 42.28 282.789 42.28C282.003 42.28 281.429 42.5533 281.069 43.1C280.723 43.6333 280.549 44.44 280.549 45.52ZM293.532 40.08V44.28H297.692V40.08H300.672V51H297.692V46.5H293.532V51H290.552V40.08H293.532ZM308.234 51.2C307.154 51.2 306.234 51.0067 305.474 50.62C304.714 50.22 304.134 49.6067 303.734 48.78C303.334 47.9533 303.134 46.8933 303.134 45.6C303.134 44.2667 303.361 43.18 303.814 42.34C304.268 41.5 304.894 40.88 305.694 40.48C306.508 40.08 307.441 39.88 308.494 39.88C309.241 39.88 309.888 39.9533 310.434 40.1C310.994 40.2467 311.481 40.42 311.894 40.62L311.014 42.92C310.548 42.7333 310.108 42.58 309.694 42.46C309.294 42.34 308.894 42.28 308.494 42.28C307.974 42.28 307.541 42.4067 307.194 42.66C306.848 42.9 306.588 43.2667 306.414 43.76C306.254 44.24 306.174 44.8467 306.174 45.58C306.174 46.3 306.261 46.9 306.434 47.38C306.621 47.8467 306.888 48.2 307.234 48.44C307.581 48.6667 308.001 48.78 308.494 48.78C309.121 48.78 309.674 48.7 310.154 48.54C310.634 48.3667 311.101 48.1333 311.554 47.84V50.38C311.101 50.6733 310.621 50.88 310.114 51C309.621 51.1333 308.994 51.2 308.234 51.2ZM312.508 40.08H315.768L317.828 46.22C317.894 46.42 317.948 46.62 317.988 46.82C318.041 47.02 318.081 47.2267 318.108 47.44C318.148 47.6533 318.174 47.88 318.188 48.12H318.248C318.288 47.7733 318.341 47.4467 318.408 47.14C318.488 46.82 318.574 46.5133 318.668 46.22L320.688 40.08H323.888L319.268 52.4C318.988 53.1467 318.621 53.7733 318.168 54.28C317.728 54.7867 317.214 55.1667 316.628 55.42C316.041 55.6733 315.401 55.8 314.708 55.8C314.374 55.8 314.081 55.78 313.828 55.74C313.588 55.7133 313.374 55.68 313.188 55.64V53.28C313.334 53.3067 313.508 53.3333 313.708 53.36C313.921 53.3867 314.141 53.4 314.368 53.4C314.781 53.4 315.134 53.3133 315.428 53.14C315.734 52.9667 315.988 52.7267 316.188 52.42C316.388 52.1267 316.548 51.8067 316.668 51.46L316.848 50.92L312.508 40.08ZM334.844 51H331.864V42.32H329.124C328.991 43.92 328.824 45.2867 328.624 46.42C328.437 47.54 328.197 48.4533 327.904 49.16C327.624 49.8667 327.264 50.3867 326.824 50.72C326.384 51.04 325.844 51.2 325.204 51.2C324.857 51.2 324.544 51.1733 324.264 51.12C323.984 51.0667 323.731 50.9867 323.504 50.88V48.5C323.651 48.5533 323.804 48.6 323.964 48.64C324.124 48.68 324.291 48.7 324.464 48.7C324.651 48.7 324.824 48.6267 324.984 48.48C325.157 48.3333 325.317 48.0733 325.464 47.7C325.624 47.3267 325.771 46.8133 325.904 46.16C326.037 45.5067 326.157 44.6867 326.264 43.7C326.384 42.7 326.491 41.4933 326.584 40.08H334.844V51ZM343.035 44.3C344.155 44.3 345.081 44.42 345.815 44.66C346.548 44.8867 347.088 45.24 347.435 45.72C347.795 46.2 347.975 46.8 347.975 47.52C347.975 48.2267 347.808 48.84 347.475 49.36C347.155 49.88 346.641 50.2867 345.935 50.58C345.228 50.86 344.301 51 343.155 51H337.955V40.08H340.935V44.3H343.035ZM344.995 47.56C344.995 47.1333 344.821 46.8267 344.475 46.64C344.141 46.4533 343.641 46.36 342.975 46.36H340.935V48.94H343.015C343.601 48.94 344.075 48.8333 344.435 48.62C344.808 48.4067 344.995 48.0533 344.995 47.56ZM358.284 42.32H354.704V51H351.724V42.32H348.144V40.08H358.284V42.32ZM364.778 39.86C366.245 39.86 367.365 40.18 368.138 40.82C368.925 41.4467 369.318 42.4133 369.318 43.72V51H367.238L366.658 49.52H366.578C366.272 49.9067 365.952 50.2267 365.618 50.48C365.298 50.7333 364.925 50.9133 364.498 51.02C364.085 51.14 363.572 51.2 362.958 51.2C362.318 51.2 361.738 51.08 361.218 50.84C360.712 50.5867 360.312 50.2067 360.018 49.7C359.725 49.18 359.578 48.5267 359.578 47.74C359.578 46.58 359.985 45.7267 360.798 45.18C361.612 44.62 362.832 44.3133 364.458 44.26L366.358 44.2V43.72C366.358 43.1467 366.205 42.7267 365.898 42.46C365.605 42.1933 365.192 42.06 364.658 42.06C364.125 42.06 363.605 42.14 363.098 42.3C362.592 42.4467 362.085 42.6333 361.578 42.86L360.598 40.84C361.185 40.5333 361.832 40.2933 362.538 40.12C363.258 39.9467 364.005 39.86 364.778 39.86ZM365.198 45.98C364.238 46.0067 363.572 46.18 363.198 46.5C362.825 46.82 362.638 47.24 362.638 47.76C362.638 48.2133 362.772 48.54 363.038 48.74C363.305 48.9267 363.652 49.02 364.078 49.02C364.718 49.02 365.258 48.8333 365.698 48.46C366.138 48.0733 366.358 47.5333 366.358 46.84V45.94L365.198 45.98ZM384.289 54.92H381.609V51H372.369V40.08H375.349V48.76H379.709V40.08H382.689V48.82H384.289V54.92ZM389.018 44.4C389.018 44.6267 389.005 44.9067 388.978 45.24C388.965 45.5733 388.945 45.9133 388.918 46.26C388.905 46.6067 388.885 46.9133 388.858 47.18C388.831 47.4467 388.811 47.6333 388.798 47.74L393.838 40.08H397.418V51H394.538V46.64C394.538 46.28 394.551 45.8867 394.578 45.46C394.605 45.02 394.631 44.6133 394.658 44.24C394.698 43.8533 394.725 43.56 394.738 43.36L389.718 51H386.138V40.08H389.018V44.4ZM415.613 45.52C415.613 46.7333 415.406 47.7667 414.993 48.62C414.579 49.46 413.986 50.1 413.213 50.54C412.453 50.98 411.546 51.2 410.493 51.2C409.599 51.2 408.793 51.0333 408.073 50.7C407.366 50.3533 406.786 49.8333 406.333 49.14C405.893 48.4467 405.606 47.5667 405.473 46.5H403.513V51H400.533V40.08H403.513V44.28H405.513C405.646 43.3333 405.933 42.5333 406.373 41.88C406.826 41.2267 407.406 40.7333 408.113 40.4C408.833 40.0533 409.646 39.88 410.553 39.88C411.539 39.88 412.413 40.1 413.173 40.54C413.933 40.98 414.526 41.62 414.953 42.46C415.393 43.2867 415.613 44.3067 415.613 45.52ZM408.473 45.52C408.473 46.24 408.539 46.8467 408.673 47.34C408.819 47.82 409.046 48.1867 409.353 48.44C409.659 48.68 410.053 48.8 410.533 48.8C411.013 48.8 411.399 48.68 411.693 48.44C411.999 48.1867 412.219 47.82 412.353 47.34C412.499 46.8467 412.573 46.24 412.573 45.52C412.573 44.8 412.499 44.2 412.353 43.72C412.219 43.24 411.999 42.88 411.693 42.64C411.399 42.4 411.006 42.28 410.513 42.28C410.033 42.28 409.639 42.4 409.333 42.64C409.039 42.88 408.819 43.24 408.673 43.72C408.539 44.2 408.473 44.8 408.473 45.52Z" fill="white"/>
<defs>
<linearGradient id="paint0_linear_126_633" x1="0" y1="0" x2="59.6862" y2="215.616" gradientUnits="userSpaceOnUse">
<stop stop-color="#168A7D"/>
<stop offset="1" stop-color="#83BA46"/>
</linearGradient>
</defs>
</svg>
