<svg width="574" height="85" viewBox="0 0 574 85" fill="none" xmlns="http://www.w3.org/2000/svg">
<rect width="574" height="85" rx="2" fill="url(#paint0_linear_123_333)"/>
<path d="M158.8 50V35.72H170.1V50H167.08V38.24H161.82V50H158.8ZM183.382 44.52C183.382 45.4267 183.256 46.2333 183.002 46.94C182.762 47.6467 182.409 48.2467 181.942 48.74C181.489 49.22 180.936 49.5867 180.282 49.84C179.629 50.08 178.889 50.2 178.062 50.2C177.302 50.2 176.596 50.08 175.942 49.84C175.302 49.5867 174.749 49.22 174.282 48.74C173.816 48.2467 173.449 47.6467 173.182 46.94C172.929 46.2333 172.802 45.4267 172.802 44.52C172.802 43.3067 173.016 42.2867 173.442 41.46C173.869 40.62 174.482 39.98 175.282 39.54C176.082 39.1 177.029 38.88 178.122 38.88C179.149 38.88 180.056 39.1 180.842 39.54C181.629 39.98 182.249 40.62 182.702 41.46C183.156 42.2867 183.382 43.3067 183.382 44.52ZM175.842 44.52C175.842 45.24 175.916 45.8467 176.062 46.34C176.222 46.82 176.469 47.1867 176.802 47.44C177.136 47.68 177.569 47.8 178.102 47.8C178.636 47.8 179.062 47.68 179.382 47.44C179.716 47.1867 179.956 46.82 180.102 46.34C180.262 45.8467 180.342 45.24 180.342 44.52C180.342 43.8 180.262 43.2 180.102 42.72C179.956 42.24 179.716 41.88 179.382 41.64C179.049 41.4 178.616 41.28 178.082 41.28C177.296 41.28 176.722 41.5533 176.362 42.1C176.016 42.6333 175.842 43.44 175.842 44.52ZM195.625 50H192.645V41.32H189.905C189.772 42.92 189.605 44.2867 189.405 45.42C189.218 46.54 188.978 47.4533 188.685 48.16C188.405 48.8667 188.045 49.3867 187.605 49.72C187.165 50.04 186.625 50.2 185.985 50.2C185.638 50.2 185.325 50.1733 185.045 50.12C184.765 50.0667 184.512 49.9867 184.285 49.88V47.5C184.432 47.5533 184.585 47.6 184.745 47.64C184.905 47.68 185.072 47.7 185.245 47.7C185.432 47.7 185.605 47.6267 185.765 47.48C185.938 47.3333 186.098 47.0733 186.245 46.7C186.405 46.3267 186.552 45.8133 186.685 45.16C186.818 44.5067 186.938 43.6867 187.045 42.7C187.165 41.7 187.272 40.4933 187.365 39.08H195.625V50ZM197.176 39.08H200.436L202.496 45.22C202.562 45.42 202.616 45.62 202.656 45.82C202.709 46.02 202.749 46.2267 202.776 46.44C202.816 46.6533 202.842 46.88 202.856 47.12H202.916C202.956 46.7733 203.009 46.4467 203.076 46.14C203.156 45.82 203.242 45.5133 203.336 45.22L205.356 39.08H208.556L203.936 51.4C203.656 52.1467 203.289 52.7733 202.836 53.28C202.396 53.7867 201.882 54.1667 201.296 54.42C200.709 54.6733 200.069 54.8 199.376 54.8C199.042 54.8 198.749 54.78 198.496 54.74C198.256 54.7133 198.042 54.68 197.856 54.64V52.28C198.002 52.3067 198.176 52.3333 198.376 52.36C198.589 52.3867 198.809 52.4 199.036 52.4C199.449 52.4 199.802 52.3133 200.096 52.14C200.402 51.9667 200.656 51.7267 200.856 51.42C201.056 51.1267 201.216 50.8067 201.336 50.46L201.516 49.92L197.176 39.08ZM212.743 43.08C212.743 43.5467 212.856 43.9 213.083 44.14C213.323 44.38 213.649 44.5 214.063 44.5C214.636 44.5 215.169 44.44 215.663 44.32C216.156 44.1867 216.649 44.0133 217.143 43.8V39.08H220.123V50H217.143V45.66C216.676 45.9133 216.143 46.1467 215.543 46.36C214.943 46.56 214.263 46.66 213.503 46.66C212.369 46.66 211.463 46.3667 210.783 45.78C210.103 45.1933 209.763 44.3133 209.763 43.14V39.08H212.743V43.08ZM226.128 43.4C226.128 43.6267 226.114 43.9067 226.088 44.24C226.074 44.5733 226.054 44.9133 226.028 45.26C226.014 45.6067 225.994 45.9133 225.968 46.18C225.941 46.4467 225.921 46.6333 225.908 46.74L230.948 39.08H234.528V50H231.648V45.64C231.648 45.28 231.661 44.8867 231.688 44.46C231.714 44.02 231.741 43.6133 231.768 43.24C231.808 42.8533 231.834 42.56 231.848 42.36L226.827 50H223.248V39.08H226.128V43.4ZM246.682 41.32H243.102V50H240.122V41.32H236.542V39.08H246.682V41.32ZM253.777 43.3C254.897 43.3 255.823 43.42 256.557 43.66C257.29 43.8867 257.83 44.24 258.177 44.72C258.537 45.2 258.717 45.8 258.717 46.52C258.717 47.2267 258.55 47.84 258.217 48.36C257.897 48.88 257.383 49.2867 256.677 49.58C255.97 49.86 255.043 50 253.897 50H248.697V39.08H251.677V43.3H253.777ZM255.737 46.56C255.737 46.1333 255.563 45.8267 255.217 45.64C254.883 45.4533 254.383 45.36 253.717 45.36H251.677V47.94H253.757C254.343 47.94 254.817 47.8333 255.177 47.62C255.55 47.4067 255.737 47.0533 255.737 46.56ZM273.337 39.08H276.617L272.297 44.32L276.997 50H273.617L269.157 44.46V50H266.177V39.08H269.157V44.38L273.337 39.08ZM288.089 44.52C288.089 45.4267 287.963 46.2333 287.709 46.94C287.469 47.6467 287.116 48.2467 286.649 48.74C286.196 49.22 285.643 49.5867 284.989 49.84C284.336 50.08 283.596 50.2 282.769 50.2C282.009 50.2 281.303 50.08 280.649 49.84C280.009 49.5867 279.456 49.22 278.989 48.74C278.523 48.2467 278.156 47.6467 277.889 46.94C277.636 46.2333 277.509 45.4267 277.509 44.52C277.509 43.3067 277.723 42.2867 278.149 41.46C278.576 40.62 279.189 39.98 279.989 39.54C280.789 39.1 281.736 38.88 282.829 38.88C283.856 38.88 284.763 39.1 285.549 39.54C286.336 39.98 286.956 40.62 287.409 41.46C287.863 42.2867 288.089 43.3067 288.089 44.52ZM280.549 44.52C280.549 45.24 280.623 45.8467 280.769 46.34C280.929 46.82 281.176 47.1867 281.509 47.44C281.843 47.68 282.276 47.8 282.809 47.8C283.343 47.8 283.769 47.68 284.089 47.44C284.423 47.1867 284.663 46.82 284.809 46.34C284.969 45.8467 285.049 45.24 285.049 44.52C285.049 43.8 284.969 43.2 284.809 42.72C284.663 42.24 284.423 41.88 284.089 41.64C283.756 41.4 283.323 41.28 282.789 41.28C282.003 41.28 281.429 41.5533 281.069 42.1C280.723 42.6333 280.549 43.44 280.549 44.52ZM293.532 39.08V43.28H297.692V39.08H300.672V50H297.692V45.5H293.532V50H290.552V39.08H293.532ZM308.234 50.2C307.154 50.2 306.234 50.0067 305.474 49.62C304.714 49.22 304.134 48.6067 303.734 47.78C303.334 46.9533 303.134 45.8933 303.134 44.6C303.134 43.2667 303.361 42.18 303.814 41.34C304.268 40.5 304.894 39.88 305.694 39.48C306.508 39.08 307.441 38.88 308.494 38.88C309.241 38.88 309.888 38.9533 310.434 39.1C310.994 39.2467 311.481 39.42 311.894 39.62L311.014 41.92C310.548 41.7333 310.108 41.58 309.694 41.46C309.294 41.34 308.894 41.28 308.494 41.28C307.974 41.28 307.541 41.4067 307.194 41.66C306.848 41.9 306.588 42.2667 306.414 42.76C306.254 43.24 306.174 43.8467 306.174 44.58C306.174 45.3 306.261 45.9 306.434 46.38C306.621 46.8467 306.888 47.2 307.234 47.44C307.581 47.6667 308.001 47.78 308.494 47.78C309.121 47.78 309.674 47.7 310.154 47.54C310.634 47.3667 311.101 47.1333 311.554 46.84V49.38C311.101 49.6733 310.621 49.88 310.114 50C309.621 50.1333 308.994 50.2 308.234 50.2ZM312.508 39.08H315.768L317.828 45.22C317.894 45.42 317.948 45.62 317.988 45.82C318.041 46.02 318.081 46.2267 318.108 46.44C318.148 46.6533 318.174 46.88 318.188 47.12H318.248C318.288 46.7733 318.341 46.4467 318.408 46.14C318.488 45.82 318.574 45.5133 318.668 45.22L320.688 39.08H323.888L319.268 51.4C318.988 52.1467 318.621 52.7733 318.168 53.28C317.728 53.7867 317.214 54.1667 316.628 54.42C316.041 54.6733 315.401 54.8 314.708 54.8C314.374 54.8 314.081 54.78 313.828 54.74C313.588 54.7133 313.374 54.68 313.188 54.64V52.28C313.334 52.3067 313.508 52.3333 313.708 52.36C313.921 52.3867 314.141 52.4 314.368 52.4C314.781 52.4 315.134 52.3133 315.428 52.14C315.734 51.9667 315.988 51.7267 316.188 51.42C316.388 51.1267 316.548 50.8067 316.668 50.46L316.848 49.92L312.508 39.08ZM334.844 50H331.864V41.32H329.124C328.991 42.92 328.824 44.2867 328.624 45.42C328.437 46.54 328.197 47.4533 327.904 48.16C327.624 48.8667 327.264 49.3867 326.824 49.72C326.384 50.04 325.844 50.2 325.204 50.2C324.857 50.2 324.544 50.1733 324.264 50.12C323.984 50.0667 323.731 49.9867 323.504 49.88V47.5C323.651 47.5533 323.804 47.6 323.964 47.64C324.124 47.68 324.291 47.7 324.464 47.7C324.651 47.7 324.824 47.6267 324.984 47.48C325.157 47.3333 325.317 47.0733 325.464 46.7C325.624 46.3267 325.771 45.8133 325.904 45.16C326.037 44.5067 326.157 43.6867 326.264 42.7C326.384 41.7 326.491 40.4933 326.584 39.08H334.844V50ZM343.035 43.3C344.155 43.3 345.081 43.42 345.815 43.66C346.548 43.8867 347.088 44.24 347.435 44.72C347.795 45.2 347.975 45.8 347.975 46.52C347.975 47.2267 347.808 47.84 347.475 48.36C347.155 48.88 346.641 49.2867 345.935 49.58C345.228 49.86 344.301 50 343.155 50H337.955V39.08H340.935V43.3H343.035ZM344.995 46.56C344.995 46.1333 344.821 45.8267 344.475 45.64C344.141 45.4533 343.641 45.36 342.975 45.36H340.935V47.94H343.015C343.601 47.94 344.075 47.8333 344.435 47.62C344.808 47.4067 344.995 47.0533 344.995 46.56ZM358.284 41.32H354.704V50H351.724V41.32H348.144V39.08H358.284V41.32ZM364.778 38.86C366.245 38.86 367.365 39.18 368.138 39.82C368.925 40.4467 369.318 41.4133 369.318 42.72V50H367.238L366.658 48.52H366.578C366.272 48.9067 365.952 49.2267 365.618 49.48C365.298 49.7333 364.925 49.9133 364.498 50.02C364.085 50.14 363.572 50.2 362.958 50.2C362.318 50.2 361.738 50.08 361.218 49.84C360.712 49.5867 360.312 49.2067 360.018 48.7C359.725 48.18 359.578 47.5267 359.578 46.74C359.578 45.58 359.985 44.7267 360.798 44.18C361.612 43.62 362.832 43.3133 364.458 43.26L366.358 43.2V42.72C366.358 42.1467 366.205 41.7267 365.898 41.46C365.605 41.1933 365.192 41.06 364.658 41.06C364.125 41.06 363.605 41.14 363.098 41.3C362.592 41.4467 362.085 41.6333 361.578 41.86L360.598 39.84C361.185 39.5333 361.832 39.2933 362.538 39.12C363.258 38.9467 364.005 38.86 364.778 38.86ZM365.198 44.98C364.238 45.0067 363.572 45.18 363.198 45.5C362.825 45.82 362.638 46.24 362.638 46.76C362.638 47.2133 362.772 47.54 363.038 47.74C363.305 47.9267 363.652 48.02 364.078 48.02C364.718 48.02 365.258 47.8333 365.698 47.46C366.138 47.0733 366.358 46.5333 366.358 45.84V44.94L365.198 44.98ZM384.289 53.92H381.609V50H372.369V39.08H375.349V47.76H379.709V39.08H382.689V47.82H384.289V53.92ZM389.018 43.4C389.018 43.6267 389.005 43.9067 388.978 44.24C388.965 44.5733 388.945 44.9133 388.918 45.26C388.905 45.6067 388.885 45.9133 388.858 46.18C388.831 46.4467 388.811 46.6333 388.798 46.74L393.838 39.08H397.418V50H394.538V45.64C394.538 45.28 394.551 44.8867 394.578 44.46C394.605 44.02 394.631 43.6133 394.658 43.24C394.698 42.8533 394.725 42.56 394.738 42.36L389.718 50H386.138V39.08H389.018V43.4ZM415.613 44.52C415.613 45.7333 415.406 46.7667 414.993 47.62C414.579 48.46 413.986 49.1 413.213 49.54C412.453 49.98 411.546 50.2 410.493 50.2C409.599 50.2 408.793 50.0333 408.073 49.7C407.366 49.3533 406.786 48.8333 406.333 48.14C405.893 47.4467 405.606 46.5667 405.473 45.5H403.513V50H400.533V39.08H403.513V43.28H405.513C405.646 42.3333 405.933 41.5333 406.373 40.88C406.826 40.2267 407.406 39.7333 408.113 39.4C408.833 39.0533 409.646 38.88 410.553 38.88C411.539 38.88 412.413 39.1 413.173 39.54C413.933 39.98 414.526 40.62 414.953 41.46C415.393 42.2867 415.613 43.3067 415.613 44.52ZM408.473 44.52C408.473 45.24 408.539 45.8467 408.673 46.34C408.819 46.82 409.046 47.1867 409.353 47.44C409.659 47.68 410.053 47.8 410.533 47.8C411.013 47.8 411.399 47.68 411.693 47.44C411.999 47.1867 412.219 46.82 412.353 46.34C412.499 45.8467 412.573 45.24 412.573 44.52C412.573 43.8 412.499 43.2 412.353 42.72C412.219 42.24 411.999 41.88 411.693 41.64C411.399 41.4 411.006 41.28 410.513 41.28C410.033 41.28 409.639 41.4 409.333 41.64C409.039 41.88 408.819 42.24 408.673 42.72C408.539 43.2 408.473 43.8 408.473 44.52Z" fill="white"/>
<defs>
<linearGradient id="paint0_linear_123_333" x1="0" y1="0" x2="57.1584" y2="211.343" gradientUnits="userSpaceOnUse">
<stop stop-color="#168A7D"/>
<stop offset="1" stop-color="#83BA46"/>
</linearGradient>
</defs>
</svg>
