<svg width="309" height="46" viewBox="0 0 309 46" fill="none" xmlns="http://www.w3.org/2000/svg">
<path d="M50.4728 36.1699V8.30083L74.0033 8.22265C77.1042 8.22265 79.3973 8.87411 80.8826 10.177C82.394 11.4539 83.1496 13.3821 83.1496 15.9619C83.1496 18.5416 82.2897 20.4309 80.5699 21.6295C81.7164 22.2549 82.5633 23.0888 83.1106 24.1311C83.6578 25.1474 83.9314 26.4633 83.9314 28.0789C83.9314 30.7108 83.1757 32.7172 81.6643 34.0983C80.179 35.4533 77.8859 36.1308 74.785 36.1308L50.4728 36.1699ZM73.2606 13.2258H56.7268V19.4797H73.2606C75.6319 19.4797 76.8175 18.4114 76.8175 16.2746C76.8175 14.2421 75.6319 13.2258 73.2606 13.2258ZM74.0424 24.4829H56.7268V31.1277H74.0424C76.4136 31.1277 77.5993 30.0072 77.5993 27.7662C77.5993 25.5773 76.4136 24.4829 74.0424 24.4829ZM87.6376 36.1699V16.0401H93.3053V36.1699H87.6376ZM87.5985 12.7177V8.30083H93.3443V12.7177H87.5985ZM108.076 36.1699C105.809 36.1699 104.141 35.6097 103.072 34.4892C102.004 33.3426 101.47 31.8443 101.47 29.9942V20.5351H95.6459V16.0401H101.47V9.86431H107.138V16.0401H115.502V20.5351H107.138V29.2906C107.138 30.8801 107.919 31.6749 109.483 31.6749H116.597V36.1699H108.076ZM153.91 36.3654C148.75 36.3654 144.802 35.1797 142.066 32.8084C139.33 30.4111 137.962 26.8672 137.962 22.1767C137.962 17.5124 139.33 13.9815 142.066 11.5841C144.802 9.1868 148.75 8.00116 153.91 8.02722L167.981 8.10539V13.1085H154.34C150.952 13.1085 148.438 13.8251 146.796 15.2583C145.154 16.6915 144.333 18.9977 144.333 22.1767C144.333 25.3558 145.154 27.675 146.796 29.1342C148.438 30.5674 150.952 31.284 154.34 31.284H168.372V36.3654H153.91ZM177.045 36.1699C174.934 36.1699 173.319 35.6357 172.198 34.5674C171.078 33.499 170.518 31.9746 170.518 29.9942C170.518 28.0398 171.078 26.5284 172.198 25.4601C173.319 24.3917 174.934 23.8575 177.045 23.8575H192.055V22.9194C192.055 21.3299 191.273 20.5351 189.709 20.5351H173.136V16.0401H191.195C193.566 16.0401 195.247 16.5873 196.237 17.6817C197.227 18.7501 197.722 20.2615 197.722 22.2158V36.1699H177.045ZM178.061 31.6749H192.055V28.3525H178.061C177.566 28.3525 177.175 28.5089 176.889 28.8215C176.628 29.1082 176.498 29.4991 176.498 29.9942C176.498 30.4893 176.628 30.8932 176.889 31.2059C177.175 31.5186 177.566 31.6749 178.061 31.6749ZM202.036 44.9645V16.0401H216.498C219.99 16.0401 222.713 16.9 224.667 18.6198C226.622 20.3397 227.599 22.8282 227.599 26.0855C227.599 29.3688 226.622 31.8703 224.667 33.5902C222.713 35.31 219.99 36.1699 216.498 36.1699H207.704V44.9645H202.036ZM216.498 20.5351H207.704V31.6749H216.498C218.192 31.6749 219.482 31.2189 220.368 30.3069C221.28 29.3688 221.736 27.9616 221.736 26.0855C221.736 24.2353 221.28 22.8543 220.368 21.9422C219.482 21.0041 218.192 20.5351 216.498 20.5351ZM231.122 36.1699V16.0401H236.79V36.1699H231.122ZM231.083 12.7177V8.30083H236.829V12.7177H231.083ZM251.56 36.1699C249.293 36.1699 247.626 35.6097 246.557 34.4892C245.489 33.3426 244.955 31.8443 244.955 29.9942V20.5351H239.131V16.0401H244.955V9.86431H250.622V16.0401H258.987V20.5351H250.622V29.2906C250.622 30.8801 251.404 31.6749 252.967 31.6749H260.081V36.1699H251.56ZM268.35 36.1699C266.239 36.1699 264.624 35.6357 263.503 34.5674C262.383 33.499 261.823 31.9746 261.823 29.9942C261.823 28.0398 262.383 26.5284 263.503 25.4601C264.624 24.3917 266.239 23.8575 268.35 23.8575H283.359V22.9194C283.359 21.3299 282.578 20.5351 281.014 20.5351H264.441V16.0401H282.5C284.871 16.0401 286.552 16.5873 287.542 17.6817C288.532 18.7501 289.027 20.2615 289.027 22.2158V36.1699H268.35ZM269.366 31.6749H283.359V28.3525H269.366C268.871 28.3525 268.48 28.5089 268.194 28.8215C267.933 29.1082 267.803 29.4991 267.803 29.9942C267.803 30.4893 267.933 30.8932 268.194 31.2059C268.48 31.5186 268.871 31.6749 269.366 31.6749ZM293.341 36.1699V8.22265H299.009V36.1699H293.341Z" fill="white"/>
<path d="M127.054 29.2124C125.777 29.2124 124.605 28.8997 123.536 28.2743C122.494 27.6489 121.66 26.802 121.035 25.7337C120.409 24.6653 120.097 23.4927 120.097 22.2158C120.097 20.939 120.409 19.7794 121.035 18.7371C121.66 17.6687 122.494 16.8218 123.536 16.1964C124.605 15.571 125.777 15.2583 127.054 15.2583C128.357 15.2583 129.53 15.571 130.572 16.1964C131.64 16.8218 132.487 17.6687 133.113 18.7371C133.738 19.7794 134.051 20.939 134.051 22.2158C134.051 23.4927 133.738 24.6653 133.113 25.7337C132.487 26.802 131.64 27.6489 130.572 28.2743C129.53 28.8997 128.357 29.2124 127.054 29.2124Z" fill="url(#paint0_linear_123_140)"/>
<path d="M15.3367 0H4.98137C4.23858 0 3.58319 0.596204 3.58319 1.36275V11.4131C3.58319 12.137 4.19489 12.7758 4.98137 12.7758H15.3367C16.0795 12.7758 16.7349 12.1796 16.7349 11.4131V1.32017C16.7349 0.596208 16.0795 0 15.3367 0Z" fill="url(#paint1_linear_123_140)"/>
<path d="M20.5359 23.5072H2.40314C1.04864 23.5072 0 24.5719 0 25.8495V43.5227C0 44.8429 1.09234 45.8649 2.40314 45.8649H20.5359C21.8904 45.8649 22.939 44.8003 22.939 43.5227V25.8495C22.939 24.5293 21.8904 23.5072 20.5359 23.5072Z" fill="url(#paint2_linear_123_140)"/>
<path d="M34.6488 7.11133H17.8269V12.2642C17.8269 13.116 17.1278 13.8399 16.2102 13.8399H10.6611V22.3571H21.4534C22.939 22.3571 24.1187 23.507 24.1187 24.9549V33.2592H34.6051C36.1781 33.2592 37.4452 32.0242 37.4452 30.4911V9.87942C37.4452 8.34632 36.1781 7.11133 34.6488 7.11133Z" fill="white"/>
<defs>
<linearGradient id="paint0_linear_123_140" x1="119" y1="24" x2="136.498" y2="24.2045" gradientUnits="userSpaceOnUse">
<stop stop-color="#168A7D"/>
<stop offset="1" stop-color="#83BA46"/>
</linearGradient>
<linearGradient id="paint1_linear_123_140" x1="3.62033" y1="6.3903" x2="16.7163" y2="6.3903" gradientUnits="userSpaceOnUse">
<stop stop-color="#009688"/>
<stop offset="0.1514" stop-color="#0E9B82"/>
<stop offset="0.4376" stop-color="#33A671"/>
<stop offset="0.8252" stop-color="#6EBA57"/>
<stop offset="1" stop-color="#8BC34A"/>
</linearGradient>
<linearGradient id="paint2_linear_123_140" x1="0.0150742" y1="34.6697" x2="22.9587" y2="34.6697" gradientUnits="userSpaceOnUse">
<stop stop-color="#009688"/>
<stop offset="0.1514" stop-color="#0E9B82"/>
<stop offset="0.4376" stop-color="#33A671"/>
<stop offset="0.8252" stop-color="#6EBA57"/>
<stop offset="1" stop-color="#8BC34A"/>
</linearGradient>
</defs>
</svg>
