<svg width="33" height="33" viewBox="0 0 33 33" fill="none" xmlns="http://www.w3.org/2000/svg">
<circle cx="16.5" cy="16.5" r="16.5" fill="#168A7D"/>
<path d="M23.1 14.3327V20.2125C23.1 20.7595 22.8827 21.2841 22.4959 21.6709C22.1091 22.0577 21.5845 22.275 21.0375 22.275H11.9625C11.4155 22.275 10.8909 22.0577 10.5041 21.6709C10.1173 21.2841 9.90002 20.7595 9.90002 20.2125V14.3327L16.2905 18.0931C16.354 18.1305 16.4263 18.1503 16.5 18.1503C16.5737 18.1503 16.6461 18.1305 16.7096 18.0931L23.1 14.3327ZM21.0375 11.55C21.545 11.5499 22.0347 11.7369 22.413 12.0753C22.7912 12.4137 23.0314 12.8796 23.0876 13.384L16.5 17.259L9.9124 13.384C9.96863 12.8796 10.2088 12.4137 10.5871 12.0753C10.9653 11.7369 11.455 11.5499 11.9625 11.55H21.0375Z" fill="white"/>
</svg>
