<svg width="335" height="85" viewBox="0 0 335 85" fill="none" xmlns="http://www.w3.org/2000/svg">
<rect width="335" height="85" rx="2" fill="url(#paint0_linear_123_155)"/>
<path d="M85.66 39.06C85.66 40.02 85.32 40.7933 84.64 41.38C83.96 41.9667 83.0933 42.3333 82.04 42.48V42.54C83.3467 42.6733 84.3467 43.04 85.04 43.64C85.7467 44.2267 86.1 44.9933 86.1 45.94C86.1 46.7667 85.8733 47.5067 85.42 48.16C84.9667 48.8 84.2933 49.3 83.4 49.66C82.5067 50.02 81.4 50.2 80.08 50.2C79 50.2 78.04 50.1333 77.2 50C76.3733 49.8667 75.6533 49.6733 75.04 49.42V46.88C75.4533 47.08 75.92 47.2533 76.44 47.4C76.96 47.5333 77.4867 47.64 78.02 47.72C78.5533 47.7867 79.0467 47.82 79.5 47.82C80.7667 47.82 81.68 47.64 82.24 47.28C82.8133 46.9067 83.1 46.3867 83.1 45.72C83.1 45.04 82.6867 44.5467 81.86 44.24C81.0333 43.92 79.92 43.76 78.52 43.76H77.18V41.4H78.38C79.5133 41.4 80.3933 41.3267 81.02 41.18C81.6467 41.0333 82.0867 40.82 82.34 40.54C82.5933 40.26 82.72 39.9267 82.72 39.54C82.72 39.0467 82.5 38.66 82.06 38.38C81.6333 38.0867 80.9867 37.94 80.12 37.94C79.3867 37.94 78.6933 38.0467 78.04 38.26C77.4 38.4733 76.8 38.7533 76.24 39.1L74.92 37.08C75.4133 36.76 75.9333 36.4867 76.48 36.26C77.04 36.02 77.6533 35.84 78.32 35.72C78.9867 35.5867 79.7267 35.52 80.54 35.52C81.62 35.52 82.54 35.6733 83.3 35.98C84.06 36.2867 84.64 36.7067 85.04 37.24C85.4533 37.76 85.66 38.3667 85.66 39.06ZM93.0088 38.86C94.4754 38.86 95.5954 39.18 96.3688 39.82C97.1554 40.4467 97.5488 41.4133 97.5488 42.72V50H95.4688L94.8888 48.52H94.8088C94.5021 48.9067 94.1821 49.2267 93.8488 49.48C93.5288 49.7333 93.1554 49.9133 92.7288 50.02C92.3154 50.14 91.8021 50.2 91.1888 50.2C90.5488 50.2 89.9688 50.08 89.4488 49.84C88.9421 49.5867 88.5421 49.2067 88.2488 48.7C87.9554 48.18 87.8088 47.5267 87.8088 46.74C87.8088 45.58 88.2154 44.7267 89.0288 44.18C89.8421 43.62 91.0621 43.3133 92.6888 43.26L94.5888 43.2V42.72C94.5888 42.1467 94.4354 41.7267 94.1288 41.46C93.8354 41.1933 93.4221 41.06 92.8888 41.06C92.3554 41.06 91.8354 41.14 91.3288 41.3C90.8221 41.4467 90.3154 41.6333 89.8088 41.86L88.8288 39.84C89.4154 39.5333 90.0621 39.2933 90.7688 39.12C91.4888 38.9467 92.2354 38.86 93.0088 38.86ZM93.4288 44.98C92.4688 45.0067 91.8021 45.18 91.4288 45.5C91.0554 45.82 90.8688 46.24 90.8688 46.76C90.8688 47.2133 91.0021 47.54 91.2688 47.74C91.5354 47.9267 91.8821 48.02 92.3088 48.02C92.9488 48.02 93.4888 47.8333 93.9288 47.46C94.3688 47.0733 94.5888 46.5333 94.5888 45.84V44.94L93.4288 44.98ZM110.519 39.08V50H107.539V41.32H103.579V50H100.599V39.08H110.519ZM112.086 39.08H115.346L117.406 45.22C117.473 45.42 117.526 45.62 117.566 45.82C117.619 46.02 117.659 46.2267 117.686 46.44C117.726 46.6533 117.753 46.88 117.766 47.12H117.826C117.866 46.7733 117.919 46.4467 117.986 46.14C118.066 45.82 118.153 45.5133 118.246 45.22L120.266 39.08H123.466L118.846 51.4C118.566 52.1467 118.199 52.7733 117.746 53.28C117.306 53.7867 116.793 54.1667 116.206 54.42C115.619 54.6733 114.979 54.8 114.286 54.8C113.953 54.8 113.659 54.78 113.406 54.74C113.166 54.7133 112.953 54.68 112.766 54.64V52.28C112.913 52.3067 113.086 52.3333 113.286 52.36C113.499 52.3867 113.719 52.4 113.946 52.4C114.359 52.4 114.713 52.3133 115.006 52.14C115.313 51.9667 115.566 51.7267 115.766 51.42C115.966 51.1267 116.126 50.8067 116.246 50.46L116.426 49.92L112.086 39.08ZM129.473 50.2C128.393 50.2 127.473 50.0067 126.713 49.62C125.953 49.22 125.373 48.6067 124.973 47.78C124.573 46.9533 124.373 45.8933 124.373 44.6C124.373 43.2667 124.599 42.18 125.053 41.34C125.506 40.5 126.133 39.88 126.933 39.48C127.746 39.08 128.679 38.88 129.733 38.88C130.479 38.88 131.126 38.9533 131.673 39.1C132.233 39.2467 132.719 39.42 133.133 39.62L132.253 41.92C131.786 41.7333 131.346 41.58 130.933 41.46C130.533 41.34 130.133 41.28 129.733 41.28C129.213 41.28 128.779 41.4067 128.433 41.66C128.086 41.9 127.826 42.2667 127.653 42.76C127.493 43.24 127.413 43.8467 127.413 44.58C127.413 45.3 127.499 45.9 127.673 46.38C127.859 46.8467 128.126 47.2 128.473 47.44C128.819 47.6667 129.239 47.78 129.733 47.78C130.359 47.78 130.913 47.7 131.393 47.54C131.873 47.3667 132.339 47.1333 132.793 46.84V49.38C132.339 49.6733 131.859 49.88 131.353 50C130.859 50.1333 130.233 50.2 129.473 50.2ZM144.346 41.32H140.766V50H137.786V41.32H134.206V39.08H144.346V41.32ZM149.241 43.4C149.241 43.6267 149.227 43.9067 149.201 44.24C149.187 44.5733 149.167 44.9133 149.141 45.26C149.127 45.6067 149.107 45.9133 149.081 46.18C149.054 46.4467 149.034 46.6333 149.021 46.74L154.061 39.08H157.641V50H154.761V45.64C154.761 45.28 154.774 44.8867 154.801 44.46C154.827 44.02 154.854 43.6133 154.881 43.24C154.921 42.8533 154.947 42.56 154.961 42.36L149.941 50H146.361V39.08H149.241V43.4ZM169.795 41.32H166.215V50H163.235V41.32H159.655V39.08H169.795V41.32ZM176.89 43.3C178.01 43.3 178.937 43.42 179.67 43.66C180.403 43.8867 180.943 44.24 181.29 44.72C181.65 45.2 181.83 45.8 181.83 46.52C181.83 47.2267 181.663 47.84 181.33 48.36C181.01 48.88 180.497 49.2867 179.79 49.58C179.083 49.86 178.157 50 177.01 50H171.81V39.08H174.79V43.3H176.89ZM178.85 46.56C178.85 46.1333 178.677 45.8267 178.33 45.64C177.997 45.4533 177.497 45.36 176.83 45.36H174.79V47.94H176.87C177.457 47.94 177.93 47.8333 178.29 47.62C178.663 47.4067 178.85 47.0533 178.85 46.56ZM188.63 43.46C188.63 41.8467 188.83 40.48 189.23 39.36C189.63 38.2267 190.264 37.3267 191.13 36.66C191.997 35.98 193.13 35.52 194.53 35.28C195.237 35.16 195.95 35.06 196.67 34.98C197.404 34.8867 198.157 34.7933 198.93 34.7L199.27 37.3C198.937 37.34 198.57 37.3867 198.17 37.44C197.77 37.48 197.364 37.5267 196.95 37.58C196.55 37.62 196.164 37.6667 195.79 37.72C195.417 37.7733 195.077 37.82 194.77 37.86C194.277 37.94 193.844 38.0533 193.47 38.2C193.097 38.3333 192.784 38.5267 192.53 38.78C192.277 39.0333 192.077 39.38 191.93 39.82C191.797 40.2467 191.71 40.8 191.67 41.48H191.81C191.97 41.2267 192.19 40.9733 192.47 40.72C192.764 40.4667 193.124 40.2533 193.55 40.08C193.977 39.9067 194.464 39.82 195.01 39.82C195.877 39.82 196.63 40 197.27 40.36C197.91 40.72 198.404 41.2533 198.75 41.96C199.097 42.6667 199.27 43.5467 199.27 44.6C199.27 45.84 199.044 46.8733 198.59 47.7C198.137 48.5267 197.51 49.1533 196.71 49.58C195.91 49.9933 194.984 50.2 193.93 50.2C193.13 50.2 192.404 50.0533 191.75 49.76C191.097 49.4667 190.537 49.0333 190.07 48.46C189.604 47.8867 189.244 47.18 188.99 46.34C188.75 45.5 188.63 44.54 188.63 43.46ZM194.11 47.78C194.537 47.78 194.904 47.6867 195.21 47.5C195.53 47.3133 195.777 47.0067 195.95 46.58C196.137 46.1533 196.23 45.58 196.23 44.86C196.23 43.9933 196.084 43.3067 195.79 42.8C195.51 42.28 195.017 42.02 194.31 42.02C193.884 42.02 193.484 42.1267 193.11 42.34C192.75 42.54 192.444 42.7733 192.19 43.04C191.937 43.2933 191.764 43.5133 191.67 43.7C191.67 44.22 191.71 44.7267 191.79 45.22C191.87 45.7 192.004 46.1333 192.19 46.52C192.377 46.9067 192.624 47.2133 192.93 47.44C193.25 47.6667 193.644 47.78 194.11 47.78ZM204.612 43.4C204.612 43.6267 204.599 43.9067 204.572 44.24C204.559 44.5733 204.539 44.9133 204.512 45.26C204.499 45.6067 204.479 45.9133 204.452 46.18C204.425 46.4467 204.405 46.6333 204.392 46.74L209.432 39.08H213.012V50H210.132V45.64C210.132 45.28 210.145 44.8867 210.172 44.46C210.199 44.02 210.225 43.6133 210.252 43.24C210.292 42.8533 210.319 42.56 210.332 42.36L205.312 50H201.732V39.08H204.612V43.4ZM220.106 38.88C220.893 38.88 221.626 38.9867 222.306 39.2C223 39.4 223.553 39.7133 223.966 40.14C224.393 40.5667 224.606 41.1133 224.606 41.78C224.606 42.4333 224.406 42.9533 224.006 43.34C223.62 43.7267 223.093 44.0067 222.426 44.18V44.28C222.893 44.3867 223.313 44.54 223.686 44.74C224.06 44.9267 224.353 45.1867 224.566 45.52C224.793 45.84 224.906 46.2733 224.906 46.82C224.906 47.42 224.713 47.98 224.326 48.5C223.953 49.0067 223.366 49.42 222.566 49.74C221.78 50.0467 220.766 50.2 219.526 50.2C218.94 50.2 218.386 50.1733 217.866 50.12C217.346 50.0667 216.873 49.9933 216.446 49.9C216.02 49.7933 215.646 49.6667 215.326 49.52V47.06C215.78 47.2733 216.333 47.4667 216.986 47.64C217.653 47.8133 218.36 47.9 219.106 47.9C219.653 47.9 220.14 47.86 220.566 47.78C221.006 47.7 221.353 47.5667 221.606 47.38C221.873 47.1933 222.006 46.9467 222.006 46.64C222.006 46.3467 221.893 46.1067 221.666 45.92C221.44 45.72 221.1 45.5733 220.646 45.48C220.193 45.3867 219.613 45.34 218.906 45.34H217.746V43.28H218.846C219.833 43.28 220.593 43.2 221.126 43.04C221.673 42.88 221.946 42.58 221.946 42.14C221.946 41.7933 221.773 41.5333 221.426 41.36C221.08 41.1733 220.513 41.08 219.726 41.08C219.206 41.08 218.64 41.14 218.026 41.26C217.413 41.38 216.833 41.5533 216.286 41.78L215.406 39.7C216.033 39.46 216.72 39.2667 217.466 39.12C218.213 38.96 219.093 38.88 220.106 38.88ZM230.2 39.08V43.28H234.36V39.08H237.34V50H234.36V45.5H230.2V50H227.22V39.08H230.2ZM244.962 38.88C245.976 38.88 246.842 39.0733 247.562 39.46C248.296 39.8467 248.862 40.4067 249.262 41.14C249.662 41.8733 249.862 42.7733 249.862 43.84V45.28H242.822C242.849 46.12 243.096 46.78 243.562 47.26C244.042 47.74 244.702 47.98 245.542 47.98C246.249 47.98 246.889 47.9133 247.462 47.78C248.036 47.6333 248.629 47.4133 249.242 47.12V49.42C248.709 49.6867 248.142 49.88 247.542 50C246.956 50.1333 246.242 50.2 245.402 50.2C244.309 50.2 243.342 50 242.502 49.6C241.662 49.1867 241.002 48.5667 240.522 47.74C240.042 46.9133 239.802 45.8733 239.802 44.62C239.802 43.34 240.016 42.28 240.442 41.44C240.882 40.5867 241.489 39.9467 242.262 39.52C243.036 39.0933 243.936 38.88 244.962 38.88ZM244.982 41C244.409 41 243.929 41.1867 243.542 41.56C243.169 41.9333 242.949 42.5133 242.882 43.3H247.062C247.062 42.86 246.982 42.4667 246.822 42.12C246.676 41.7733 246.449 41.5 246.142 41.3C245.836 41.1 245.449 41 244.982 41ZM256.719 50.2C255.639 50.2 254.719 50.0067 253.959 49.62C253.199 49.22 252.619 48.6067 252.219 47.78C251.819 46.9533 251.619 45.8933 251.619 44.6C251.619 43.2667 251.845 42.18 252.299 41.34C252.752 40.5 253.379 39.88 254.179 39.48C254.992 39.08 255.925 38.88 256.979 38.88C257.725 38.88 258.372 38.9533 258.919 39.1C259.479 39.2467 259.965 39.42 260.379 39.62L259.499 41.92C259.032 41.7333 258.592 41.58 258.179 41.46C257.779 41.34 257.379 41.28 256.979 41.28C256.459 41.28 256.025 41.4067 255.679 41.66C255.332 41.9 255.072 42.2667 254.899 42.76C254.739 43.24 254.659 43.8467 254.659 44.58C254.659 45.3 254.745 45.9 254.919 46.38C255.105 46.8467 255.372 47.2 255.719 47.44C256.065 47.6667 256.485 47.78 256.979 47.78C257.605 47.78 258.159 47.7 258.639 47.54C259.119 47.3667 259.585 47.1333 260.039 46.84V49.38C259.585 49.6733 259.105 49.88 258.599 50C258.105 50.1333 257.479 50.2 256.719 50.2Z" fill="white"/>
<defs>
<linearGradient id="paint0_linear_123_155" x1="0" y1="0" x2="86.521" y2="186.708" gradientUnits="userSpaceOnUse">
<stop stop-color="#168A7D"/>
<stop offset="1" stop-color="#83BA46"/>
</linearGradient>
</defs>
</svg>
