<svg width="33" height="33" viewBox="0 0 33 33" fill="none" xmlns="http://www.w3.org/2000/svg">
<circle cx="16.5" cy="16.5" r="16.5" fill="#168A7D"/>
<path d="M12.8012 15.6681C13.7912 17.6137 15.3863 19.2019 17.3319 20.1987L18.8444 18.6863C19.03 18.5006 19.305 18.4387 19.5456 18.5212C20.3156 18.7756 21.1475 18.9131 22 18.9131C22.3781 18.9131 22.6875 19.2225 22.6875 19.6006V22C22.6875 22.3781 22.3781 22.6875 22 22.6875C15.5444 22.6875 10.3125 17.4556 10.3125 11C10.3125 10.6219 10.6219 10.3125 11 10.3125H13.4062C13.7844 10.3125 14.0938 10.6219 14.0938 11C14.0938 11.8594 14.2312 12.6844 14.4856 13.4544C14.5612 13.695 14.5062 13.9631 14.3137 14.1556L12.8012 15.6681Z" fill="white"/>
</svg>
