<svg width="272" height="43" viewBox="0 0 272 43" fill="none" xmlns="http://www.w3.org/2000/svg">
<path d="M36.8188 33V7.332L58.4908 7.26C61.3468 7.26 63.4588 7.86 64.8268 9.06C66.2188 10.236 66.9148 12.012 66.9148 14.388C66.9148 16.764 66.1228 18.504 64.5388 19.608C65.5948 20.184 66.3748 20.952 66.8788 21.912C67.3828 22.848 67.6348 24.06 67.6348 25.548C67.6348 27.972 66.9388 29.82 65.5468 31.092C64.1788 32.34 62.0668 32.964 59.2108 32.964L36.8188 33ZM57.8068 11.868H42.5788V17.628H57.8068C59.9908 17.628 61.0828 16.644 61.0828 14.676C61.0828 12.804 59.9908 11.868 57.8068 11.868ZM58.5268 22.236H42.5788V28.356H58.5268C60.7108 28.356 61.8028 27.324 61.8028 25.26C61.8028 23.244 60.7108 22.236 58.5268 22.236ZM71.0484 33V14.46H76.2684V33H71.0484ZM71.0124 11.4V7.332H76.3044V11.4H71.0124ZM89.8721 33C87.7841 33 86.2481 32.484 85.2641 31.452C84.2801 30.396 83.7881 29.016 83.7881 27.312V18.6H78.4241V14.46H83.7881V8.772H89.0081V14.46H96.7121V18.6H89.0081V26.664C89.0081 28.128 89.7281 28.86 91.1681 28.86H97.7201V33H89.8721ZM132.086 33.18C127.334 33.18 123.698 32.088 121.178 29.904C118.658 27.696 117.398 24.432 117.398 20.112C117.398 15.816 118.658 12.564 121.178 10.356C123.698 8.148 127.334 7.056 132.086 7.08L145.046 7.152V11.76H132.482C129.362 11.76 127.046 12.42 125.534 13.74C124.022 15.06 123.266 17.184 123.266 20.112C123.266 23.04 124.022 25.176 125.534 26.52C127.046 27.84 129.362 28.5 132.482 28.5H145.406V33.18H132.086ZM153.394 33C151.45 33 149.962 32.508 148.93 31.524C147.898 30.54 147.382 29.136 147.382 27.312C147.382 25.512 147.898 24.12 148.93 23.136C149.962 22.152 151.45 21.66 153.394 21.66H167.218V20.796C167.218 19.332 166.498 18.6 165.058 18.6H149.794V14.46H166.426C168.61 14.46 170.158 14.964 171.07 15.972C171.982 16.956 172.438 18.348 172.438 20.148V33H153.394ZM154.33 28.86H167.218V25.8H154.33C153.874 25.8 153.514 25.944 153.25 26.232C153.01 26.496 152.89 26.856 152.89 27.312C152.89 27.768 153.01 28.14 153.25 28.428C153.514 28.716 153.874 28.86 154.33 28.86ZM176.412 41.1V14.46H189.732C192.948 14.46 195.456 15.252 197.256 16.836C199.056 18.42 199.956 20.712 199.956 23.712C199.956 26.736 199.056 29.04 197.256 30.624C195.456 32.208 192.948 33 189.732 33H181.632V41.1H176.412ZM189.732 18.6H181.632V28.86H189.732C191.292 28.86 192.48 28.44 193.296 27.6C194.136 26.736 194.556 25.44 194.556 23.712C194.556 22.008 194.136 20.736 193.296 19.896C192.48 19.032 191.292 18.6 189.732 18.6ZM203.201 33V14.46H208.421V33H203.201ZM203.165 11.4V7.332H208.457V11.4H203.165ZM222.024 33C219.936 33 218.4 32.484 217.416 31.452C216.432 30.396 215.94 29.016 215.94 27.312V18.6H210.576V14.46H215.94V8.772H221.16V14.46H228.864V18.6H221.16V26.664C221.16 28.128 221.88 28.86 223.32 28.86H229.872V33H222.024ZM237.488 33C235.544 33 234.056 32.508 233.024 31.524C231.992 30.54 231.476 29.136 231.476 27.312C231.476 25.512 231.992 24.12 233.024 23.136C234.056 22.152 235.544 21.66 237.488 21.66H251.312V20.796C251.312 19.332 250.592 18.6 249.152 18.6H233.888V14.46H250.52C252.704 14.46 254.252 14.964 255.164 15.972C256.076 16.956 256.532 18.348 256.532 20.148V33H237.488ZM238.424 28.86H251.312V25.8H238.424C237.968 25.8 237.608 25.944 237.344 26.232C237.104 26.496 236.984 26.856 236.984 27.312C236.984 27.768 237.104 28.14 237.344 28.428C237.608 28.716 237.968 28.86 238.424 28.86ZM260.505 33V7.26H265.725V33H260.505Z" fill="#333332"/>
<path d="M107.352 26.592C106.176 26.592 105.096 26.304 104.112 25.728C103.152 25.152 102.384 24.372 101.808 23.388C101.232 22.404 100.944 21.324 100.944 20.148C100.944 18.972 101.232 17.904 101.808 16.944C102.384 15.96 103.152 15.18 104.112 14.604C105.096 14.028 106.176 13.74 107.352 13.74C108.552 13.74 109.632 14.028 110.592 14.604C111.576 15.18 112.356 15.96 112.932 16.944C113.508 17.904 113.796 18.972 113.796 20.148C113.796 21.324 113.508 22.404 112.932 23.388C112.356 24.372 111.576 25.152 110.592 25.728C109.632 26.304 108.552 26.592 107.352 26.592Z" fill="url(#paint0_linear_123_506)"/>
<path d="M9.76265 4.00002H3.1708C2.69796 4.00002 2.28076 4.39119 2.28076 4.89413V11.4883C2.28076 11.9633 2.67015 12.3824 3.1708 12.3824H9.76265C10.2355 12.3824 10.6527 11.9912 10.6527 11.4883V4.86619C10.6527 4.39119 10.2355 4.00002 9.76265 4.00002Z" fill="url(#paint1_linear_123_506)"/>
<path d="M13.0724 19.4236H1.52975C0.667529 19.4236 0 20.1221 0 20.9604V32.556C0 33.4221 0.695343 34.0927 1.52975 34.0927H13.0724C13.9347 34.0927 14.6022 33.3942 14.6022 32.556V20.9604C14.6022 20.0942 13.9347 19.4236 13.0724 19.4236Z" fill="url(#paint2_linear_123_506)"/>
<path d="M22.0563 8.66624H11.3481V12.0471C11.3481 12.606 10.9031 13.081 10.319 13.081H6.78662V18.6692H13.6566C14.6023 18.6692 15.3532 19.4236 15.3532 20.3736V25.8221H22.0285C23.0298 25.8221 23.8364 25.0118 23.8364 24.006V10.4824C23.8364 9.47654 23.0298 8.66624 22.0563 8.66624Z" fill="#333332"/>
<defs>
<linearGradient id="paint0_linear_123_506" x1="101.5" y1="21" x2="115.5" y2="21.0011" gradientUnits="userSpaceOnUse">
<stop stop-color="#168A7D"/>
<stop offset="1" stop-color="#83BA46"/>
</linearGradient>
<linearGradient id="paint1_linear_123_506" x1="2.3044" y1="8.19276" x2="10.6408" y2="8.19276" gradientUnits="userSpaceOnUse">
<stop stop-color="#009688"/>
<stop offset="0.1514" stop-color="#0E9B82"/>
<stop offset="0.4376" stop-color="#33A671"/>
<stop offset="0.8252" stop-color="#6EBA57"/>
<stop offset="1" stop-color="#8BC34A"/>
</linearGradient>
<linearGradient id="paint2_linear_123_506" x1="0.00959573" y1="26.7474" x2="14.6147" y2="26.7474" gradientUnits="userSpaceOnUse">
<stop stop-color="#009688"/>
<stop offset="0.1514" stop-color="#0E9B82"/>
<stop offset="0.4376" stop-color="#33A671"/>
<stop offset="0.8252" stop-color="#6EBA57"/>
<stop offset="1" stop-color="#8BC34A"/>
</linearGradient>
</defs>
</svg>
