<svg width="335" height="85" viewBox="0 0 335 85" fill="none" xmlns="http://www.w3.org/2000/svg">
<rect width="335" height="85" rx="2" fill="url(#paint0_linear_123_393)"/>
<path d="M66 50H62.98V43.84H57.32V50H54.3V35.72H57.32V41.32H62.98V35.72H66V50ZM73.833 38.86C75.2996 38.86 76.4196 39.18 77.193 39.82C77.9796 40.4467 78.373 41.4133 78.373 42.72V50H76.293L75.713 48.52H75.633C75.3263 48.9067 75.0063 49.2267 74.673 49.48C74.353 49.7333 73.9796 49.9133 73.553 50.02C73.1396 50.14 72.6263 50.2 72.013 50.2C71.373 50.2 70.793 50.08 70.273 49.84C69.7663 49.5867 69.3663 49.2067 69.073 48.7C68.7796 48.18 68.633 47.5267 68.633 46.74C68.633 45.58 69.0396 44.7267 69.853 44.18C70.6663 43.62 71.8863 43.3133 73.513 43.26L75.413 43.2V42.72C75.413 42.1467 75.2596 41.7267 74.953 41.46C74.6596 41.1933 74.2463 41.06 73.713 41.06C73.1796 41.06 72.6596 41.14 72.153 41.3C71.6463 41.4467 71.1396 41.6333 70.633 41.86L69.653 39.84C70.2396 39.5333 70.8863 39.2933 71.593 39.12C72.313 38.9467 73.0596 38.86 73.833 38.86ZM74.253 44.98C73.293 45.0067 72.6263 45.18 72.253 45.5C71.8796 45.82 71.693 46.24 71.693 46.76C71.693 47.2133 71.8263 47.54 72.093 47.74C72.3596 47.9267 72.7063 48.02 73.133 48.02C73.773 48.02 74.313 47.8333 74.753 47.46C75.193 47.0733 75.413 46.5333 75.413 45.84V44.94L74.253 44.98ZM84.0433 43.08C84.0433 43.5467 84.1566 43.9 84.3833 44.14C84.6233 44.38 84.9499 44.5 85.3633 44.5C85.9366 44.5 86.4699 44.44 86.9633 44.32C87.4566 44.1867 87.9499 44.0133 88.4433 43.8V39.08H91.4233V50H88.4433V45.66C87.9766 45.9133 87.4433 46.1467 86.8433 46.36C86.2433 46.56 85.5633 46.66 84.8033 46.66C83.6699 46.66 82.7633 46.3667 82.0833 45.78C81.4033 45.1933 81.0633 44.3133 81.0633 43.14V39.08H84.0433V43.08ZM99.0283 38.86C100.495 38.86 101.615 39.18 102.388 39.82C103.175 40.4467 103.568 41.4133 103.568 42.72V50H101.488L100.908 48.52H100.828C100.522 48.9067 100.202 49.2267 99.8683 49.48C99.5483 49.7333 99.1749 49.9133 98.7483 50.02C98.3349 50.14 97.8216 50.2 97.2083 50.2C96.5683 50.2 95.9883 50.08 95.4683 49.84C94.9616 49.5867 94.5616 49.2067 94.2683 48.7C93.9749 48.18 93.8283 47.5267 93.8283 46.74C93.8283 45.58 94.2349 44.7267 95.0483 44.18C95.8616 43.62 97.0816 43.3133 98.7083 43.26L100.608 43.2V42.72C100.608 42.1467 100.455 41.7267 100.148 41.46C99.8549 41.1933 99.4416 41.06 98.9083 41.06C98.3749 41.06 97.8549 41.14 97.3483 41.3C96.8416 41.4467 96.3349 41.6333 95.8283 41.86L94.8483 39.84C95.4349 39.5333 96.0816 39.2933 96.7883 39.12C97.5083 38.9467 98.2549 38.86 99.0283 38.86ZM99.4483 44.98C98.4883 45.0067 97.8216 45.18 97.4483 45.5C97.0749 45.82 96.8883 46.24 96.8883 46.76C96.8883 47.2133 97.0216 47.54 97.2883 47.74C97.5549 47.9267 97.9016 48.02 98.3283 48.02C98.9683 48.02 99.5083 47.8333 99.9483 47.46C100.388 47.0733 100.608 46.5333 100.608 45.84V44.94L99.4483 44.98ZM115.659 41.32H112.079V50H109.099V41.32H105.519V39.08H115.659V41.32ZM122.753 43.3C123.873 43.3 124.8 43.42 125.533 43.66C126.267 43.8867 126.807 44.24 127.153 44.72C127.513 45.2 127.693 45.8 127.693 46.52C127.693 47.2267 127.527 47.84 127.193 48.36C126.873 48.88 126.36 49.2867 125.653 49.58C124.947 49.86 124.02 50 122.873 50H117.673V39.08H120.653V43.3H122.753ZM124.713 46.56C124.713 46.1333 124.54 45.8267 124.193 45.64C123.86 45.4533 123.36 45.36 122.693 45.36H120.653V47.94H122.733C123.32 47.94 123.793 47.8333 124.153 47.62C124.527 47.4067 124.713 47.0533 124.713 46.56ZM139.134 38.88C139.92 38.88 140.654 38.9867 141.334 39.2C142.027 39.4 142.58 39.7133 142.994 40.14C143.42 40.5667 143.634 41.1133 143.634 41.78C143.634 42.4333 143.434 42.9533 143.034 43.34C142.647 43.7267 142.12 44.0067 141.454 44.18V44.28C141.92 44.3867 142.34 44.54 142.714 44.74C143.087 44.9267 143.38 45.1867 143.594 45.52C143.82 45.84 143.934 46.2733 143.934 46.82C143.934 47.42 143.74 47.98 143.354 48.5C142.98 49.0067 142.394 49.42 141.594 49.74C140.807 50.0467 139.794 50.2 138.554 50.2C137.967 50.2 137.414 50.1733 136.894 50.12C136.374 50.0667 135.9 49.9933 135.474 49.9C135.047 49.7933 134.674 49.6667 134.354 49.52V47.06C134.807 47.2733 135.36 47.4667 136.014 47.64C136.68 47.8133 137.387 47.9 138.134 47.9C138.68 47.9 139.167 47.86 139.594 47.78C140.034 47.7 140.38 47.5667 140.634 47.38C140.9 47.1933 141.034 46.9467 141.034 46.64C141.034 46.3467 140.92 46.1067 140.694 45.92C140.467 45.72 140.127 45.5733 139.674 45.48C139.22 45.3867 138.64 45.34 137.934 45.34H136.774V43.28H137.874C138.86 43.28 139.62 43.2 140.154 43.04C140.7 42.88 140.974 42.58 140.974 42.14C140.974 41.7933 140.8 41.5333 140.454 41.36C140.107 41.1733 139.54 41.08 138.754 41.08C138.234 41.08 137.667 41.14 137.054 41.26C136.44 41.38 135.86 41.5533 135.314 41.78L134.434 39.7C135.06 39.46 135.747 39.2667 136.494 39.12C137.24 38.96 138.12 38.88 139.134 38.88ZM150.728 38.86C152.194 38.86 153.314 39.18 154.088 39.82C154.874 40.4467 155.268 41.4133 155.268 42.72V50H153.188L152.608 48.52H152.528C152.221 48.9067 151.901 49.2267 151.568 49.48C151.248 49.7333 150.874 49.9133 150.448 50.02C150.034 50.14 149.521 50.2 148.908 50.2C148.268 50.2 147.688 50.08 147.168 49.84C146.661 49.5867 146.261 49.2067 145.968 48.7C145.674 48.18 145.528 47.5267 145.528 46.74C145.528 45.58 145.934 44.7267 146.748 44.18C147.561 43.62 148.781 43.3133 150.408 43.26L152.308 43.2V42.72C152.308 42.1467 152.154 41.7267 151.848 41.46C151.554 41.1933 151.141 41.06 150.608 41.06C150.074 41.06 149.554 41.14 149.048 41.3C148.541 41.4467 148.034 41.6333 147.528 41.86L146.548 39.84C147.134 39.5333 147.781 39.2933 148.488 39.12C149.208 38.9467 149.954 38.86 150.728 38.86ZM151.148 44.98C150.188 45.0067 149.521 45.18 149.148 45.5C148.774 45.82 148.588 46.24 148.588 46.76C148.588 47.2133 148.721 47.54 148.988 47.74C149.254 47.9267 149.601 48.02 150.028 48.02C150.668 48.02 151.208 47.8333 151.648 47.46C152.088 47.0733 152.308 46.5333 152.308 45.84V44.94L151.148 44.98ZM164.398 38.88C165.624 38.88 166.618 39.36 167.378 40.32C168.138 41.2667 168.518 42.6667 168.518 44.52C168.518 45.76 168.338 46.8067 167.978 47.66C167.618 48.5 167.124 49.1333 166.498 49.56C165.871 49.9867 165.144 50.2 164.318 50.2C163.798 50.2 163.344 50.1333 162.958 50C162.584 49.8667 162.264 49.6933 161.998 49.48C161.731 49.2667 161.498 49.04 161.298 48.8H161.138C161.191 49.0533 161.231 49.32 161.258 49.6C161.284 49.8667 161.298 50.1333 161.298 50.4V54.8H158.318V39.08H160.738L161.158 40.5H161.298C161.498 40.2067 161.738 39.94 162.018 39.7C162.298 39.4467 162.631 39.2467 163.018 39.1C163.418 38.9533 163.878 38.88 164.398 38.88ZM163.438 41.26C162.918 41.26 162.504 41.3667 162.198 41.58C161.891 41.7933 161.664 42.12 161.518 42.56C161.384 42.9867 161.311 43.5267 161.298 44.18V44.5C161.298 45.2067 161.364 45.8067 161.498 46.3C161.631 46.78 161.858 47.1467 162.178 47.4C162.498 47.6533 162.931 47.78 163.478 47.78C163.931 47.78 164.304 47.6533 164.598 47.4C164.891 47.1467 165.111 46.7733 165.258 46.28C165.404 45.7867 165.478 45.1867 165.478 44.48C165.478 43.4133 165.311 42.6133 164.978 42.08C164.658 41.5333 164.144 41.26 163.438 41.26ZM175.454 38.86C176.921 38.86 178.041 39.18 178.814 39.82C179.601 40.4467 179.994 41.4133 179.994 42.72V50H177.914L177.334 48.52H177.254C176.947 48.9067 176.627 49.2267 176.294 49.48C175.974 49.7333 175.601 49.9133 175.174 50.02C174.761 50.14 174.247 50.2 173.634 50.2C172.994 50.2 172.414 50.08 171.894 49.84C171.387 49.5867 170.987 49.2067 170.694 48.7C170.401 48.18 170.254 47.5267 170.254 46.74C170.254 45.58 170.661 44.7267 171.474 44.18C172.287 43.62 173.507 43.3133 175.134 43.26L177.034 43.2V42.72C177.034 42.1467 176.881 41.7267 176.574 41.46C176.281 41.1933 175.867 41.06 175.334 41.06C174.801 41.06 174.281 41.14 173.774 41.3C173.267 41.4467 172.761 41.6333 172.254 41.86L171.274 39.84C171.861 39.5333 172.507 39.2933 173.214 39.12C173.934 38.9467 174.681 38.86 175.454 38.86ZM175.874 44.98C174.914 45.0067 174.247 45.18 173.874 45.5C173.501 45.82 173.314 46.24 173.314 46.76C173.314 47.2133 173.447 47.54 173.714 47.74C173.981 47.9267 174.327 48.02 174.754 48.02C175.394 48.02 175.934 47.8333 176.374 47.46C176.814 47.0733 177.034 46.5333 177.034 45.84V44.94L175.874 44.98ZM182.384 43.46C182.384 41.8467 182.584 40.48 182.984 39.36C183.384 38.2267 184.018 37.3267 184.884 36.66C185.751 35.98 186.884 35.52 188.284 35.28C188.991 35.16 189.704 35.06 190.424 34.98C191.158 34.8867 191.911 34.7933 192.684 34.7L193.024 37.3C192.691 37.34 192.324 37.3867 191.924 37.44C191.524 37.48 191.118 37.5267 190.704 37.58C190.304 37.62 189.918 37.6667 189.544 37.72C189.171 37.7733 188.831 37.82 188.524 37.86C188.031 37.94 187.598 38.0533 187.224 38.2C186.851 38.3333 186.538 38.5267 186.284 38.78C186.031 39.0333 185.831 39.38 185.684 39.82C185.551 40.2467 185.464 40.8 185.424 41.48H185.564C185.724 41.2267 185.944 40.9733 186.224 40.72C186.518 40.4667 186.878 40.2533 187.304 40.08C187.731 39.9067 188.218 39.82 188.764 39.82C189.631 39.82 190.384 40 191.024 40.36C191.664 40.72 192.158 41.2533 192.504 41.96C192.851 42.6667 193.024 43.5467 193.024 44.6C193.024 45.84 192.798 46.8733 192.344 47.7C191.891 48.5267 191.264 49.1533 190.464 49.58C189.664 49.9933 188.738 50.2 187.684 50.2C186.884 50.2 186.158 50.0533 185.504 49.76C184.851 49.4667 184.291 49.0333 183.824 48.46C183.358 47.8867 182.998 47.18 182.744 46.34C182.504 45.5 182.384 44.54 182.384 43.46ZM187.864 47.78C188.291 47.78 188.658 47.6867 188.964 47.5C189.284 47.3133 189.531 47.0067 189.704 46.58C189.891 46.1533 189.984 45.58 189.984 44.86C189.984 43.9933 189.838 43.3067 189.544 42.8C189.264 42.28 188.771 42.02 188.064 42.02C187.638 42.02 187.238 42.1267 186.864 42.34C186.504 42.54 186.198 42.7733 185.944 43.04C185.691 43.2933 185.518 43.5133 185.424 43.7C185.424 44.22 185.464 44.7267 185.544 45.22C185.624 45.7 185.758 46.1333 185.944 46.52C186.131 46.9067 186.378 47.2133 186.684 47.44C187.004 47.6667 187.398 47.78 187.864 47.78ZM199.966 38.86C201.432 38.86 202.552 39.18 203.326 39.82C204.112 40.4467 204.506 41.4133 204.506 42.72V50H202.426L201.846 48.52H201.766C201.459 48.9067 201.139 49.2267 200.806 49.48C200.486 49.7333 200.112 49.9133 199.686 50.02C199.272 50.14 198.759 50.2 198.146 50.2C197.506 50.2 196.926 50.08 196.406 49.84C195.899 49.5867 195.499 49.2067 195.206 48.7C194.912 48.18 194.766 47.5267 194.766 46.74C194.766 45.58 195.172 44.7267 195.986 44.18C196.799 43.62 198.019 43.3133 199.646 43.26L201.546 43.2V42.72C201.546 42.1467 201.392 41.7267 201.086 41.46C200.792 41.1933 200.379 41.06 199.846 41.06C199.312 41.06 198.792 41.14 198.286 41.3C197.779 41.4467 197.272 41.6333 196.766 41.86L195.786 39.84C196.372 39.5333 197.019 39.2933 197.726 39.12C198.446 38.9467 199.192 38.86 199.966 38.86ZM200.386 44.98C199.426 45.0067 198.759 45.18 198.386 45.5C198.012 45.82 197.826 46.24 197.826 46.76C197.826 47.2133 197.959 47.54 198.226 47.74C198.492 47.9267 198.839 48.02 199.266 48.02C199.906 48.02 200.446 47.8333 200.886 47.46C201.326 47.0733 201.546 46.5333 201.546 45.84V44.94L200.386 44.98ZM216.596 41.32H213.016V50H210.036V41.32H206.456V39.08H216.596V41.32ZM218.611 50V39.08H221.591V43.3H223.031C224.151 43.3 225.071 43.42 225.791 43.66C226.511 43.8867 227.044 44.24 227.391 44.72C227.751 45.2 227.931 45.8 227.931 46.52C227.931 47.2267 227.764 47.84 227.431 48.36C227.111 48.88 226.597 49.2867 225.891 49.58C225.197 49.86 224.277 50 223.131 50H218.611ZM222.971 47.94C223.557 47.94 224.031 47.8333 224.391 47.62C224.764 47.4067 224.951 47.0533 224.951 46.56C224.951 46.1333 224.777 45.8267 224.431 45.64C224.097 45.4533 223.597 45.36 222.931 45.36H221.591V47.94H222.971ZM229.511 50V39.08H232.491V50H229.511ZM245.283 41.94C245.283 42.5267 245.096 43.0267 244.723 43.44C244.363 43.8533 243.823 44.12 243.103 44.24V44.32C243.863 44.4133 244.47 44.6733 244.923 45.1C245.39 45.5267 245.623 46.0733 245.623 46.74C245.623 47.2067 245.53 47.64 245.343 48.04C245.17 48.44 244.89 48.7867 244.503 49.08C244.116 49.3733 243.616 49.6 243.003 49.76C242.403 49.92 241.67 50 240.803 50H235.603V39.08H240.803C241.656 39.08 242.416 39.1733 243.083 39.36C243.763 39.5333 244.296 39.8267 244.683 40.24C245.083 40.6533 245.283 41.22 245.283 41.94ZM242.543 46.58C242.543 46.1533 242.376 45.8467 242.043 45.66C241.71 45.46 241.21 45.36 240.543 45.36H238.583V47.94H240.603C241.163 47.94 241.623 47.84 241.983 47.64C242.356 47.4267 242.543 47.0733 242.543 46.58ZM242.263 42.18C242.263 41.8333 242.13 41.58 241.863 41.42C241.596 41.26 241.203 41.18 240.683 41.18H238.583V43.34H240.343C240.97 43.34 241.443 43.2533 241.763 43.08C242.096 42.8933 242.263 42.5933 242.263 42.18ZM252.661 38.86C254.128 38.86 255.248 39.18 256.021 39.82C256.808 40.4467 257.201 41.4133 257.201 42.72V50H255.121L254.541 48.52H254.461C254.154 48.9067 253.834 49.2267 253.501 49.48C253.181 49.7333 252.808 49.9133 252.381 50.02C251.968 50.14 251.454 50.2 250.841 50.2C250.201 50.2 249.621 50.08 249.101 49.84C248.594 49.5867 248.194 49.2067 247.901 48.7C247.608 48.18 247.461 47.5267 247.461 46.74C247.461 45.58 247.868 44.7267 248.681 44.18C249.494 43.62 250.714 43.3133 252.341 43.26L254.241 43.2V42.72C254.241 42.1467 254.088 41.7267 253.781 41.46C253.488 41.1933 253.074 41.06 252.541 41.06C252.008 41.06 251.488 41.14 250.981 41.3C250.474 41.4467 249.968 41.6333 249.461 41.86L248.481 39.84C249.068 39.5333 249.714 39.2933 250.421 39.12C251.141 38.9467 251.888 38.86 252.661 38.86ZM253.081 44.98C252.121 45.0067 251.454 45.18 251.081 45.5C250.708 45.82 250.521 46.24 250.521 46.76C250.521 47.2133 250.654 47.54 250.921 47.74C251.188 47.9267 251.534 48.02 251.961 48.02C252.601 48.02 253.141 47.8333 253.581 47.46C254.021 47.0733 254.241 46.5333 254.241 45.84V44.94L253.081 44.98ZM269.291 41.32H265.711V50H262.731V41.32H259.151V39.08H269.291V41.32ZM276.386 43.3C277.506 43.3 278.433 43.42 279.166 43.66C279.899 43.8867 280.439 44.24 280.786 44.72C281.146 45.2 281.326 45.8 281.326 46.52C281.326 47.2267 281.159 47.84 280.826 48.36C280.506 48.88 279.993 49.2867 279.286 49.58C278.579 49.86 277.653 50 276.506 50H271.306V39.08H274.286V43.3H276.386ZM278.346 46.56C278.346 46.1333 278.173 45.8267 277.826 45.64C277.493 45.4533 276.993 45.36 276.326 45.36H274.286V47.94H276.366C276.953 47.94 277.426 47.8333 277.786 47.62C278.159 47.4067 278.346 47.0533 278.346 46.56Z" fill="white"/>
<defs>
<linearGradient id="paint0_linear_123_393" x1="0" y1="0" x2="86.521" y2="186.708" gradientUnits="userSpaceOnUse">
<stop stop-color="#168A7D"/>
<stop offset="1" stop-color="#83BA46"/>
</linearGradient>
</defs>
</svg>
